ply
format ascii 1.0
comment VTK generated PLY File
obj_info vtkPolyData points and polygons: vtk4.0
element vertex 63
property float x
property float y
property float z
property float nx
property float ny
property float nz
element face 48
property list uchar int vertex_indices
end_header
17.957099914550781 14.916000366210938 1.8272000551223755 0 -0.02617499977350235 -0.99965739250183105 
18.321613311767578 14.916000366210938 1.8272000551223755 0 -0.02617499977350235 -0.99965739250183105 
18.686124801635742 14.916000366210938 1.8272000551223755 0 -0.02617499977350235 -0.99965739250183105 
19.050638198852539 14.916000366210938 1.8272000551223755 0 -0.02617499977350235 -0.99965739250183105 
19.415149688720703 14.916000366210938 1.8272000551223755 0 -0.02617499977350235 -0.99965739250183105 
19.7796630859375 14.916000366210938 1.8272000551223755 0 -0.02617499977350235 -0.99965739250183105 
20.144174575805664 14.916000366210938 1.8272000551223755 0 -0.02617499977350235 -0.99965739250183105 
20.508687973022461 14.916000366210938 1.8272000551223755 0 -0.02617499977350235 -0.99965739250183105 
20.873199462890625 14.916000366210938 1.8272000551223755 0 -0.02617499977350235 -0.99965739250183105 
18.287399291992188 16.013999938964844 1.7984499931335449 0 -0.02617499977350235 -0.99965739250183105 
18.629848480224609 16.013999938964844 1.7984499931335449 0 -0.02617499977350235 -0.99965739250183105 
18.972295761108398 16.013999938964844 1.7984499931335449 0 -0.02617499977350235 -0.99965739250183105 
19.314743041992188 16.013999938964844 1.7984499931335449 0 -0.02617499977350235 -0.99965739250183105 
19.657192230224609 16.013999938964844 1.7984499931335449 0 -0.02617499977350235 -0.99965739250183105 
19.999639511108398 16.013999938964844 1.7984499931335449 0 -0.02617499977350235 -0.99965739250183105 
20.342086791992188 16.013999938964844 1.7984499931335449 0 -0.02617499977350235 -0.99965739250183105 
20.684535980224609 16.013999938964844 1.7984499931335449 0 -0.02617499977350235 -0.99965739250183105 
21.026983261108398 16.013999938964844 1.7984499931335449 0 -0.02617499977350235 -0.99965739250183105 
18.617700576782227 17.11199951171875 1.7697000503540039 0 -0.02617499977350235 -0.99965739250183105 
18.938083648681641 17.11199951171875 1.7697000503540039 0 -0.02617499977350235 -0.99965739250183105 
19.258466720581055 17.11199951171875 1.7697000503540039 0 -0.02617499977350235 -0.99965739250183105 
19.578849792480469 17.11199951171875 1.7697000503540039 0 -0.02617499977350235 -0.99965739250183105 
19.899232864379883 17.11199951171875 1.7697000503540039 0 -0.02617499977350235 -0.99965739250183105 
20.219615936279297 17.11199951171875 1.7697000503540039 0 -0.02617499977350235 -0.99965739250183105 
20.540000915527344 17.11199951171875 1.7697000503540039 0 -0.02617499977350235 -0.99965739250183105 
20.860383987426758 17.11199951171875 1.7697000503540039 0 -0.02617499977350235 -0.99965739250183105 
21.180767059326172 17.11199951171875 1.7697000503540039 0 -0.02617499977350235 -0.99965739250183105 
18.947999954223633 18.209999084472656 1.7409499883651733 0 -0.02617499977350235 -0.99965739250183105 
19.246318817138672 18.209999084472656 1.7409499883651733 0 -0.02617499977350235 -0.99965739250183105 
19.544637680053711 18.209999084472656 1.7409499883651733 0 -0.02617499977350235 -0.99965739250183105 
19.84295654296875 18.209999084472656 1.7409499883651733 0 -0.02617499977350235 -0.99965739250183105 
20.141275405883789 18.209999084472656 1.7409499883651733 0 -0.02617499977350235 -0.99965739250183105 
20.439594268798828 18.209999084472656 1.7409499883651733 0 -0.02617499977350235 -0.99965739250183105 
20.737913131713867 18.209999084472656 1.7409499883651733 0 -0.02617499977350235 -0.99965739250183105 
21.036231994628906 18.209999084472656 1.7409499883651733 0 -0.02617499977350235 -0.99965739250183105 
21.334550857543945 18.209999084472656 1.7409499883651733 0 -0.02617499977350235 -0.99965739250183105 
19.278299331665039 19.308000564575195 1.7122000455856323 0 -0.02617499977350235 -0.99965739250183105 
19.554553985595703 19.308000564575195 1.7122000455856323 0 -0.02617499977350235 -0.99965739250183105 
19.830808639526367 19.308000564575195 1.7122000455856323 0 -0.02617499977350235 -0.99965739250183105 
20.107063293457031 19.308000564575195 1.7122000455856323 0 -0.02617499977350235 -0.99965739250183105 
20.383316040039062 19.308000564575195 1.7122000455856323 0 -0.02617499977350235 -0.99965739250183105 
20.659570693969727 19.308000564575195 1.7122000455856323 0 -0.02617499977350235 -0.99965739250183105 
20.935825347900391 19.308000564575195 1.7122000455856323 0 -0.02617499977350235 -0.99965739250183105 
21.212080001831055 19.308000564575195 1.7122000455856323 0 -0.02617499977350235 -0.99965739250183105 
21.488332748413086 19.308000564575195 1.7122000455856323 0 -0.02617499977350235 -0.99965739250183105 
19.608600616455078 20.406000137329102 1.6834499835968018 0 -0.02617499977350235 -0.99965739250183105 
19.862789154052734 20.406000137329102 1.6834499835968018 0 -0.02617499977350235 -0.99965739250183105 
20.116979598999023 20.406000137329102 1.6834499835968018 0 -0.02617499977350235 -0.99965739250183105 
20.37116813659668 20.406000137329102 1.6834499835968018 0 -0.02617499977350235 -0.99965739250183105 
20.625358581542969 20.406000137329102 1.6834499835968018 0 -0.02617499977350235 -0.99965739250183105 
20.879547119140625 20.406000137329102 1.6834499835968018 0 -0.02617499977350235 -0.99965739250183105 
21.133737564086914 20.406000137329102 1.6834499835968018 0 -0.02617499977350235 -0.99965739250183105 
21.387928009033203 20.406000137329102 1.6834499835968018 0 -0.02617499977350235 -0.99965739250183105 
21.642116546630859 20.406000137329102 1.6834499835968018 0 -0.02617499977350235 -0.99965739250183105 
19.938899993896484 21.503999710083008 1.6547000408172607 0 -0.02617499977350235 -0.99965739250183105 
20.171024322509766 21.503999710083008 1.6547000408172607 0 -0.02617499977350235 -0.99965739250183105 
20.40315055847168 21.503999710083008 1.6547000408172607 0 -0.02617499977350235 -0.99965739250183105 
20.635274887084961 21.503999710083008 1.6547000408172607 0 -0.02617499977350235 -0.99965739250183105 
20.867399215698242 21.503999710083008 1.6547000408172607 0 -0.02617499977350235 -0.99965739250183105 
21.099525451660156 21.503999710083008 1.6547000408172607 0 -0.02617499977350235 -0.99965739250183105 
21.331649780273438 21.503999710083008 1.6547000408172607 0 -0.02617499977350235 -0.99965739250183105 
21.563774108886719 21.503999710083008 1.6547000408172607 0 -0.02617499977350235 -0.99965739250183105 
21.795900344848633 21.503999710083008 1.6547000408172607 0 -0.02617499977350235 -0.99965739250183105 
4 0 9 10 1 
4 1 10 11 2 
4 2 11 12 3 
4 3 12 13 4 
4 4 13 14 5 
4 5 14 15 6 
4 6 15 16 7 
4 7 16 17 8 
4 9 18 19 10 
4 10 19 20 11 
4 11 20 21 12 
4 12 21 22 13 
4 13 22 23 14 
4 14 23 24 15 
4 15 24 25 16 
4 16 25 26 17 
4 18 27 28 19 
4 19 28 29 20 
4 20 29 30 21 
4 21 30 31 22 
4 22 31 32 23 
4 23 32 33 24 
4 24 33 34 25 
4 25 34 35 26 
4 27 36 37 28 
4 28 37 38 29 
4 29 38 39 30 
4 30 39 40 31 
4 31 40 41 32 
4 32 41 42 33 
4 33 42 43 34 
4 34 43 44 35 
4 36 45 46 37 
4 37 46 47 38 
4 38 47 48 39 
4 39 48 49 40 
4 40 49 50 41 
4 41 50 51 42 
4 42 51 52 43 
4 43 52 53 44 
4 45 54 55 46 
4 46 55 56 47 
4 47 56 57 48 
4 48 57 58 49 
4 49 58 59 50 
4 50 59 60 51 
4 51 60 61 52 
4 52 61 62 53 
