ply
format ascii 1.0
comment VTK generated PLY File
obj_info vtkPolyData points and polygons: vtk4.0
element vertex 63
property float x
property float y
property float z
property float nx
property float ny
property float nz
element face 48
property list uchar int vertex_indices
end_header
37.002300262451172 0 5.9207000732421875 0 -0.050075288861989975 0.99874556064605713 
37.424598693847656 0 5.9207000732421875 0 -0.050075288861989975 0.99874556064605713 
37.846900939941406 0 5.9207000732421875 0 -0.050075288861989975 0.99874556064605713 
38.269199371337891 0 5.9207000732421875 0 -0.050075288861989975 0.99874556064605713 
38.691501617431641 0 5.9207000732421875 0 -0.050075288861989975 0.99874556064605713 
39.113800048828125 0 5.9207000732421875 0 -0.050075288861989975 0.99874556064605713 
39.536098480224609 0 5.9207000732421875 0 -0.050075288861989975 0.99874556064605713 
39.958400726318359 0 5.9207000732421875 0 -0.050075288861989975 0.99874556064605713 
40.380699157714844 -0 5.9207000732421875 0 -0.050075288861989975 0.99874556064605713 
37.444534301757812 -0.97696667909622192 5.8717164993286133 0 -0.050075288861989975 0.99874556064605713 
37.821792602539062 -0.97696667909622192 5.8717164993286133 0 -0.050075288861989975 0.99874556064605713 
38.199050903320312 -0.97696667909622192 5.8717164993286133 0 -0.050075288861989975 0.99874556064605713 
38.576309204101562 -0.97696667909622192 5.8717164993286133 4.4585965594797314e-18 -0.050075288861989975 0.99874556064605713 
38.953567504882812 -0.97696667909622192 5.8717164993286133 4.4585965594797314e-18 -0.050075288861989975 0.99874556064605713 
39.330825805664062 -0.97696667909622192 5.8717164993286133 0 -0.050075288861989975 0.99874556064605713 
39.708084106445312 -0.97696667909622192 5.8717164993286133 0 -0.050075288861989975 0.99874556064605713 
40.085342407226562 -0.97696667909622192 5.8717164993286133 0 -0.050075288861989975 0.99874556064605713 
40.462600708007812 -0.97696667909622192 5.8717164993286133 0 -0.050075288861989975 0.99874556064605713 
37.886768341064453 -1.9539333581924438 5.8227334022521973 0 -0.050075288861989975 0.99874556064605713 
38.218982696533203 -1.9539333581924438 5.8227334022521973 0 -0.050075288861989975 0.99874556064605713 
38.551200866699219 -1.9539333581924438 5.8227334022521973 0 -0.050075288861989975 0.99874556064605713 
38.883415222167969 -1.9539333581924438 5.8227334022521973 8.9464463613224006e-18 -0.050075288861989975 0.99874556064605713 
39.215633392333984 -1.9539333581924438 5.8227334022521973 8.9464463613224006e-18 -0.050075288861989975 0.99874556064605713 
39.5478515625 -1.9539333581924438 5.8227334022521973 0 -0.050075288861989975 0.99874556064605713 
39.88006591796875 -1.9539333581924438 5.8227334022521973 0 -0.050075288861989975 0.99874556064605713 
40.212284088134766 -1.9539333581924438 5.8227334022521973 0 -0.050075288861989975 0.99874556064605713 
40.544498443603516 -1.9539333581924438 5.8227334022521973 0 -0.050075288861989975 0.99874556064605713 
38.328998565673828 -2.9309000968933105 5.773749828338623 0 -0.050075288861989975 0.99874556064605713 
38.616176605224609 -2.9309000968933105 5.773749828338623 0 -0.050075288861989975 0.99874556064605713 
38.903350830078125 -2.9309000968933105 5.773749828338623 0 -0.050075288861989975 0.99874556064605713 
39.190525054931641 -2.9309000968933105 5.773749828338623 1.4539049224379148e-17 -0.050075288861989975 0.99874556064605713 
39.477699279785156 -2.9309000968933105 5.773749828338623 1.4539049224379148e-17 -0.050075288861989975 0.99874556064605713 
39.764873504638672 -2.9309000968933105 5.773749828338623 0 -0.050075288861989975 0.99874556064605713 
40.052051544189453 -2.9309000968933105 5.773749828338623 0 -0.050075288861989975 0.99874556064605713 
40.339225769042969 -2.9309000968933105 5.773749828338623 0 -0.050075288861989975 0.99874556064605713 
40.626399993896484 -2.9309000968933105 5.773749828338623 0 -0.050075288861989975 0.99874556064605713 
38.771232604980469 -3.9078667163848877 5.724766731262207 0 -0.050075288861989975 0.99874556064605713 
39.01336669921875 -3.9078667163848877 5.724766731262207 0 -0.050075288861989975 0.99874556064605713 
39.255500793457031 -3.9078667163848877 5.724766731262207 0 -0.050075288861989975 0.99874556064605713 
39.497634887695312 -3.9078667163848877 5.724766731262207 4.6933983110797475e-17 -0.050075288861989975 0.99874556064605713 
39.739765167236328 -3.9078667163848877 5.724766731262207 4.6933983110797475e-17 -0.050075288861989975 0.99874556064605713 
39.981899261474609 -3.9078667163848877 5.724766731262207 0 -0.050075288861989975 0.99874556064605713 
40.224033355712891 -3.9078667163848877 5.724766731262207 0 -0.050075288861989975 0.99874556064605713 
40.466167449951172 -3.9078667163848877 5.724766731262207 0 -0.050075288861989975 0.99874556064605713 
40.708301544189453 -3.9078667163848877 5.724766731262207 0 -0.050075288861989975 0.99874556064605713 
39.213466644287109 -4.8848333358764648 5.6757831573486328 0 -0.050075288861989975 0.99874556064605713 
39.410556793212891 -4.8848333358764648 5.6757831573486328 0 -0.050075288861989975 0.99874556064605713 
39.607650756835938 -4.8848333358764648 5.6757831573486328 0 -0.050075288861989975 0.99874556064605713 
39.804740905761719 -4.8848333358764648 5.6757831573486328 6.8729305513953097e-17 -0.050075288861989975 0.99874556064605713 
40.001834869384766 -4.8848333358764648 5.6757831573486328 6.8729305513953097e-17 -0.050075288861989975 0.99874556064605713 
40.198925018310547 -4.8848333358764648 5.6757831573486328 0 -0.050075288861989975 0.99874556064605713 
40.396015167236328 -4.8848333358764648 5.6757831573486328 0 -0.050075288861989975 0.99874556064605713 
40.593109130859375 -4.8848333358764648 5.6757831573486328 0 -0.050075288861989975 0.99874556064605713 
40.790199279785156 -4.8848333358764648 5.6757831573486328 0 -0.050075288861989975 0.99874556064605713 
39.65570068359375 -5.8618001937866211 5.6268000602722168 0 -0.050075288861989975 0.99874556064605713 
39.807750701904297 -5.8618001937866211 5.6268000602722168 0 -0.050075288861989975 0.99874556064605713 
39.959800720214844 -5.8618001937866211 5.6268000602722168 0 -0.050075288861989975 0.99874556064605713 
40.111850738525391 -5.8618001937866211 5.6268000602722168 6.3693039515481139e-17 -0.050075288861989975 0.99874556064605713 
40.263900756835938 -5.8618001937866211 5.6268000602722168 6.3693039515481139e-17 -0.050075288861989975 0.99874556064605713 
40.415950775146484 -5.8618001937866211 5.6268000602722168 0 -0.050075288861989975 0.99874556064605713 
40.568000793457031 -5.8618001937866211 5.6268000602722168 0 -0.050075288861989975 0.99874556064605713 
40.720050811767578 -5.8618001937866211 5.6268000602722168 0 -0.050075288861989975 0.99874556064605713 
40.872100830078125 -5.8618001937866211 5.6268000602722168 0 -0.050075288861989975 0.99874556064605713 
4 0 9 10 1 
4 1 10 11 2 
4 2 11 12 3 
4 3 12 13 4 
4 4 13 14 5 
4 5 14 15 6 
4 6 15 16 7 
4 7 16 17 8 
4 9 18 19 10 
4 10 19 20 11 
4 11 20 21 12 
4 12 21 22 13 
4 13 22 23 14 
4 14 23 24 15 
4 15 24 25 16 
4 16 25 26 17 
4 18 27 28 19 
4 19 28 29 20 
4 20 29 30 21 
4 21 30 31 22 
4 22 31 32 23 
4 23 32 33 24 
4 24 33 34 25 
4 25 34 35 26 
4 27 36 37 28 
4 28 37 38 29 
4 29 38 39 30 
4 30 39 40 31 
4 31 40 41 32 
4 32 41 42 33 
4 33 42 43 34 
4 34 43 44 35 
4 36 45 46 37 
4 37 46 47 38 
4 38 47 48 39 
4 39 48 49 40 
4 40 49 50 41 
4 41 50 51 42 
4 42 51 52 43 
4 43 52 53 44 
4 45 54 55 46 
4 46 55 56 47 
4 47 56 57 48 
4 48 57 58 49 
4 49 58 59 50 
4 50 59 60 51 
4 51 60 61 52 
4 52 61 62 53 
