ply
format ascii 1.0
comment VTK generated PLY File
obj_info vtkPolyData points and polygons: vtk4.0
element vertex 90
property float x
property float y
property float z
property float nx
property float ny
property float nz
element face 72
property list uchar int vertex_indices
end_header
16.066099166870117 -5.9288997650146484 2.0625998973846436 0 -0.026184119284152985 0.99965715408325195 
16.458662033081055 -5.9288997650146484 2.0625998973846436 0 -0.026184119284152985 0.99965715408325195 
16.851224899291992 -5.9288997650146484 2.0625998973846436 0 -0.026184119284152985 0.99965715408325195 
17.24378776550293 -5.9288997650146484 2.0625998973846436 0 -0.026184119284152985 0.99965715408325195 
17.636350631713867 -5.9288997650146484 2.0625998973846436 0 -0.026184119284152985 0.99965715408325195 
18.028911590576172 -5.9288997650146484 2.0625998973846436 0 -0.026184119284152985 0.99965715408325195 
18.421474456787109 -5.9288997650146484 2.0625998973846436 0 -0.026184119284152985 0.99965715408325195 
18.814037322998047 -5.9288997650146484 2.0625998973846436 0 -0.026184119284152985 0.99965715408325195 
19.206600189208984 -5.9288997650146484 2.0625998973846436 0 -0.026184119284152985 0.99965715408325195 
16.276132583618164 -6.927466869354248 2.0364444255828857 0 -0.026184119284152985 0.99965715408325195 
16.665578842163086 -6.927466869354248 2.0364444255828857 0 -0.026184119284152985 0.99965715408325195 
17.055025100708008 -6.927466869354248 2.0364444255828857 0 -0.026184119284152985 0.99965715408325195 
17.44447135925293 -6.927466869354248 2.0364444255828857 0 -0.026184119284152985 0.99965715408325195 
17.833917617797852 -6.927466869354248 2.0364444255828857 0 -0.026184119284152985 0.99965715408325195 
18.223361968994141 -6.927466869354248 2.0364444255828857 0 -0.026184119284152985 0.99965715408325195 
18.612808227539062 -6.927466869354248 2.0364444255828857 0 -0.026184119284152985 0.99965715408325195 
19.002254486083984 -6.927466869354248 2.0364444255828857 0 -0.026184119284152985 0.99965715408325195 
19.391700744628906 -6.927466869354248 2.0364444255828857 0 -0.026184119284152985 0.99965715408325195 
16.486166000366211 -7.9260334968566895 2.0102889537811279 0 -0.026184119284152985 0.99965715408325195 
16.872495651245117 -7.9260334968566895 2.0102889537811279 0 -0.026184119284152985 0.99965715408325195 
17.258825302124023 -7.9260334968566895 2.0102889537811279 0 -0.026184119284152985 0.99965715408325195 
17.64515495300293 -7.9260334968566895 2.0102889537811279 0 -0.026184119284152985 0.99965715408325195 
18.031482696533203 -7.9260334968566895 2.0102889537811279 0 -0.026184119284152985 0.99965715408325195 
18.417812347412109 -7.9260334968566895 2.0102889537811279 0 -0.026184119284152985 0.99965715408325195 
18.804141998291016 -7.9260334968566895 2.0102889537811279 0 -0.026184119284152985 0.99965715408325195 
19.190471649169922 -7.9260334968566895 2.0102889537811279 0 -0.026184119284152985 0.99965715408325195 
19.576799392700195 -7.9260334968566895 2.0102889537811279 0 -0.026184119284152985 0.99965715408325195 
16.696199417114258 -8.9245996475219727 1.9841333627700806 0 -0.026184119284152985 0.99965715408325195 
17.079412460327148 -8.9245996475219727 1.9841333627700806 0 -0.026184119284152985 0.99965715408325195 
17.462625503540039 -8.9245996475219727 1.9841333627700806 0 -0.026184119284152985 0.99965715408325195 
17.845836639404297 -8.9245996475219727 1.9841333627700806 0 -0.026184119284152985 0.99965715408325195 
18.229049682617188 -8.9245996475219727 1.9841333627700806 0 -0.026184119284152985 0.99965715408325195 
18.612262725830078 -8.9245996475219727 1.9841333627700806 0 -0.026184119284152985 0.99965715408325195 
18.995475769042969 -8.9245996475219727 1.9841333627700806 0 -0.026184119284152985 0.99965715408325195 
19.378686904907227 -8.9245996475219727 1.9841333627700806 0 -0.026184119284152985 0.99965715408325195 
19.761899948120117 -8.9245996475219727 1.9841333627700806 0 -0.026184119284152985 0.99965715408325195 
16.906232833862305 -9.9231662750244141 1.9579777717590332 0 -0.026184119284152985 0.99965715408325195 
17.28632926940918 -9.9231662750244141 1.9579777717590332 0 -0.026184119284152985 0.99965715408325195 
17.666425704956055 -9.9231662750244141 1.9579777717590332 0 -0.026184119284152985 0.99965715408325195 
18.046520233154297 -9.9231662750244141 1.9579777717590332 0 -0.026184119284152985 0.99965715408325195 
18.426616668701172 -9.9231662750244141 1.9579777717590332 0 -0.026184119284152985 0.99965715408325195 
18.806713104248047 -9.9231662750244141 1.9579777717590332 0 -0.026184119284152985 0.99965715408325195 
19.186807632446289 -9.9231662750244141 1.9579777717590332 0 -0.026184119284152985 0.99965715408325195 
19.566904067993164 -9.9231662750244141 1.9579777717590332 0 -0.026184119284152985 0.99965715408325195 
19.947000503540039 -9.9231662750244141 1.9579777717590332 0 -0.026184119284152985 0.99965715408325195 
17.116266250610352 -10.921732902526855 1.9318221807479858 0 -0.026184119284152985 0.99965715408325195 
17.493246078491211 -10.921732902526855 1.9318221807479858 0 -0.026184119284152985 0.99965715408325195 
17.87022590637207 -10.921732902526855 1.9318221807479858 0 -0.026184119284152985 0.99965715408325195 
18.247203826904297 -10.921732902526855 1.9318221807479858 0 -0.026184119284152985 0.99965715408325195 
18.624183654785156 -10.921732902526855 1.9318221807479858 0 -0.026184119284152985 0.99965715408325195 
19.001161575317383 -10.921732902526855 1.9318221807479858 0 -0.026184119284152985 0.99965715408325195 
19.378141403198242 -10.921732902526855 1.9318221807479858 0 -0.026184119284152985 0.99965715408325195 
19.755121231079102 -10.921732902526855 1.9318221807479858 0 -0.026184119284152985 0.99965715408325195 
20.132099151611328 -10.921732902526855 1.9318221807479858 0 -0.026184119284152985 0.99965715408325195 
17.326299667358398 -11.920299530029297 1.905666708946228 0 -0.026184119284152985 0.99965715408325195 
17.700162887573242 -11.920299530029297 1.905666708946228 0 -0.026184119284152985 0.99965715408325195 
18.074024200439453 -11.920299530029297 1.905666708946228 0 -0.026184119284152985 0.99965715408325195 
18.447887420654297 -11.920299530029297 1.905666708946228 0 -0.026184119284152985 0.99965715408325195 
18.821750640869141 -11.920299530029297 1.905666708946228 0 -0.026184119284152985 0.99965715408325195 
19.195611953735352 -11.920299530029297 1.905666708946228 0 -0.026184119284152985 0.99965715408325195 
19.569475173950195 -11.920299530029297 1.905666708946228 0 -0.026184119284152985 0.99965715408325195 
19.943338394165039 -11.920299530029297 1.905666708946228 0 -0.026184119284152985 0.99965715408325195 
20.31719970703125 -11.920299530029297 1.905666708946228 0 -0.026184119284152985 0.99965715408325195 
17.536333084106445 -12.918867111206055 1.8795111179351807 0 -0.026184119284152985 0.99965715408325195 
17.907079696655273 -12.918867111206055 1.8795111179351807 0 -0.026184119284152985 0.99965715408325195 
18.277824401855469 -12.918867111206055 1.8795111179351807 0 -0.026184119284152985 0.99965715408325195 
18.648571014404297 -12.918867111206055 1.8795111179351807 0 -0.026184119284152985 0.99965715408325195 
19.019315719604492 -12.918867111206055 1.8795111179351807 0 -0.026184119284152985 0.99965715408325195 
19.39006233215332 -12.918867111206055 1.8795111179351807 0 -0.026184119284152985 0.99965715408325195 
19.760808944702148 -12.918867111206055 1.8795111179351807 0 -0.026184119284152985 0.99965715408325195 
20.131553649902344 -12.918867111206055 1.8795111179351807 0 -0.026184119284152985 0.99965715408325195 
20.502300262451172 -12.918867111206055 1.8795111179351807 0 -0.026184119284152985 0.99965715408325195 
17.746366500854492 -13.917433738708496 1.8533555269241333 0 -0.026184119284152985 0.99965715408325195 
18.113996505737305 -13.917433738708496 1.8533555269241333 0 -0.026184119284152985 0.99965715408325195 
18.481624603271484 -13.917433738708496 1.8533555269241333 0 -0.026184119284152985 0.99965715408325195 
18.849254608154297 -13.917433738708496 1.8533555269241333 0 -0.026184119284152985 0.99965715408325195 
19.216882705688477 -13.917433738708496 1.8533555269241333 0 -0.026184119284152985 0.99965715408325195 
19.584512710571289 -13.917433738708496 1.8533555269241333 0 -0.026184119284152985 0.99965715408325195 
19.952140808105469 -13.917433738708496 1.8533555269241333 0 -0.026184119284152985 0.99965715408325195 
20.319770812988281 -13.917433738708496 1.8533555269241333 0 -0.026184119284152985 0.99965715408325195 
20.687400817871094 -13.917433738708496 1.8533555269241333 0 -0.026184119284152985 0.99965715408325195 
17.956399917602539 -14.916000366210938 1.8272000551223755 0 -0.026184119284152985 0.99965715408325195 
18.320913314819336 -14.916000366210938 1.8272000551223755 0 -0.026184119284152985 0.99965715408325195 
18.6854248046875 -14.916000366210938 1.8272000551223755 0 -0.026184119284152985 0.99965715408325195 
19.049938201904297 -14.916000366210938 1.8272000551223755 0 -0.026184119284152985 0.99965715408325195 
19.414449691772461 -14.916000366210938 1.8272000551223755 0 -0.026184119284152985 0.99965715408325195 
19.778963088989258 -14.916000366210938 1.8272000551223755 0 -0.026184119284152985 0.99965715408325195 
20.143474578857422 -14.916000366210938 1.8272000551223755 0 -0.026184119284152985 0.99965715408325195 
20.507987976074219 -14.916000366210938 1.8272000551223755 0 -0.026184119284152985 0.99965715408325195 
20.872499465942383 -14.916000366210938 1.8272000551223755 0 -0.026184119284152985 0.99965715408325195 
4 0 9 10 1 
4 1 10 11 2 
4 2 11 12 3 
4 3 12 13 4 
4 4 13 14 5 
4 5 14 15 6 
4 6 15 16 7 
4 7 16 17 8 
4 9 18 19 10 
4 10 19 20 11 
4 11 20 21 12 
4 12 21 22 13 
4 13 22 23 14 
4 14 23 24 15 
4 15 24 25 16 
4 16 25 26 17 
4 18 27 28 19 
4 19 28 29 20 
4 20 29 30 21 
4 21 30 31 22 
4 22 31 32 23 
4 23 32 33 24 
4 24 33 34 25 
4 25 34 35 26 
4 27 36 37 28 
4 28 37 38 29 
4 29 38 39 30 
4 30 39 40 31 
4 31 40 41 32 
4 32 41 42 33 
4 33 42 43 34 
4 34 43 44 35 
4 36 45 46 37 
4 37 46 47 38 
4 38 47 48 39 
4 39 48 49 40 
4 40 49 50 41 
4 41 50 51 42 
4 42 51 52 43 
4 43 52 53 44 
4 45 54 55 46 
4 46 55 56 47 
4 47 56 57 48 
4 48 57 58 49 
4 49 58 59 50 
4 50 59 60 51 
4 51 60 61 52 
4 52 61 62 53 
4 54 63 64 55 
4 55 64 65 56 
4 56 65 66 57 
4 57 66 67 58 
4 58 67 68 59 
4 59 68 69 60 
4 60 69 70 61 
4 61 70 71 62 
4 63 72 73 64 
4 64 73 74 65 
4 65 74 75 66 
4 66 75 76 67 
4 67 76 77 68 
4 68 77 78 69 
4 69 78 79 70 
4 70 79 80 71 
4 72 81 82 73 
4 73 82 83 74 
4 74 83 84 75 
4 75 84 85 76 
4 76 85 86 77 
4 77 86 87 78 
4 78 87 88 79 
4 79 88 89 80 
