ply
format ascii 1.0
comment VTK generated PLY File
obj_info vtkPolyData points and polygons: vtk4.0
element vertex 45
property float x
property float y
property float z
property float nx
property float ny
property float nz
element face 32
property list uchar int vertex_indices
end_header
19.938899993896484 -21.503999710083008 1.6547000408172607 0 -0.02617499977350235 0.99965739250183105 
20.171024322509766 -21.503999710083008 1.6547000408172607 0 -0.02617499977350235 0.99965739250183105 
20.40315055847168 -21.503999710083008 1.6547000408172607 0 -0.02617499977350235 0.99965739250183105 
20.635274887084961 -21.503999710083008 1.6547000408172607 0 -0.02617499977350235 0.99965739250183105 
20.867399215698242 -21.503999710083008 1.6547000408172607 0 -0.02617499977350235 0.99965739250183105 
21.099525451660156 -21.503999710083008 1.6547000408172607 0 -0.02617499977350235 0.99965739250183105 
21.331649780273438 -21.503999710083008 1.6547000408172607 0 -0.02617499977350235 0.99965739250183105 
21.563774108886719 -21.503999710083008 1.6547000408172607 0 -0.02617499977350235 0.99965739250183105 
21.795900344848633 -21.503999710083008 1.6547000408172607 0 -0.02617499977350235 0.99965739250183105 
20.269199371337891 -22.601999282836914 1.6259499788284302 0 -0.02617499977350235 0.99965739250183105 
20.479259490966797 -22.601999282836914 1.6259499788284302 0 -0.02617499977350235 0.99965739250183105 
20.689319610595703 -22.601999282836914 1.6259499788284302 0 -0.02617499977350235 0.99965739250183105 
20.899377822875977 -22.601999282836914 1.6259499788284302 0 -0.02617499977350235 0.99965739250183105 
21.109437942504883 -22.601999282836914 1.6259499788284302 0 -0.02617499977350235 0.99965739250183105 
21.319496154785156 -22.601999282836914 1.6259499788284302 0 -0.02617499977350235 0.99965739250183105 
21.529556274414062 -22.601999282836914 1.6259499788284302 0 -0.02617499977350235 0.99965739250183105 
21.739616394042969 -22.601999282836914 1.6259499788284302 0 -0.02617499977350235 0.99965739250183105 
21.949674606323242 -22.601999282836914 1.6259499788284302 0 -0.02617499977350235 0.99965739250183105 
20.59950065612793 -23.700000762939453 1.5972000360488892 0 -0.02617499977350235 0.99965739250183105 
20.787494659423828 -23.700000762939453 1.5972000360488892 0 -0.02617499977350235 0.99965739250183105 
20.975486755371094 -23.700000762939453 1.5972000360488892 0 -0.02617499977350235 0.99965739250183105 
21.163480758666992 -23.700000762939453 1.5972000360488892 0 -0.02617499977350235 0.99965739250183105 
21.351474761962891 -23.700000762939453 1.5972000360488892 0 -0.02617499977350235 0.99965739250183105 
21.539468765258789 -23.700000762939453 1.5972000360488892 0 -0.02617499977350235 0.99965739250183105 
21.727462768554688 -23.700000762939453 1.5972000360488892 0 -0.02617499977350235 0.99965739250183105 
21.915456771850586 -23.700000762939453 1.5972000360488892 0 -0.02617499977350235 0.99965739250183105 
22.103450775146484 -23.700000762939453 1.5972000360488892 0 -0.02617499977350235 0.99965739250183105 
20.929800033569336 -24.798000335693359 1.5684499740600586 0 -0.02617499977350235 0.99965739250183105 
21.095727920532227 -24.798000335693359 1.5684499740600586 0 -0.02617499977350235 0.99965739250183105 
21.261655807495117 -24.798000335693359 1.5684499740600586 0 -0.02617499977350235 0.99965739250183105 
21.427583694458008 -24.798000335693359 1.5684499740600586 0 -0.02617499977350235 0.99965739250183105 
21.593511581420898 -24.798000335693359 1.5684499740600586 0 -0.02617499977350235 0.99965739250183105 
21.759441375732422 -24.798000335693359 1.5684499740600586 0 -0.02617499977350235 0.99965739250183105 
21.925369262695312 -24.798000335693359 1.5684499740600586 0 -0.02617499977350235 0.99965739250183105 
22.091297149658203 -24.798000335693359 1.5684499740600586 0 -0.02617499977350235 0.99965739250183105 
22.257225036621094 -24.798000335693359 1.5684499740600586 0 -0.02617499977350235 0.99965739250183105 
21.260099411010742 -25.895999908447266 1.5397000312805176 0 -0.02617499977350235 0.99965739250183105 
21.403963088989258 -25.895999908447266 1.5397000312805176 0 -0.02617499977350235 0.99965739250183105 
21.547824859619141 -25.895999908447266 1.5397000312805176 0 -0.02617499977350235 0.99965739250183105 
21.691686630249023 -25.895999908447266 1.5397000312805176 0 -0.02617499977350235 0.99965739250183105 
21.835550308227539 -25.895999908447266 1.5397000312805176 0 -0.02617499977350235 0.99965739250183105 
21.979412078857422 -25.895999908447266 1.5397000312805176 0 -0.02617499977350235 0.99965739250183105 
22.123275756835938 -25.895999908447266 1.5397000312805176 0 -0.02617499977350235 0.99965739250183105 
22.26713752746582 -25.895999908447266 1.5397000312805176 0 -0.02617499977350235 0.99965739250183105 
22.410999298095703 -25.895999908447266 1.5397000312805176 0 -0.02617499977350235 0.99965739250183105 
4 0 9 10 1 
4 1 10 11 2 
4 2 11 12 3 
4 3 12 13 4 
4 4 13 14 5 
4 5 14 15 6 
4 6 15 16 7 
4 7 16 17 8 
4 9 18 19 10 
4 10 19 20 11 
4 11 20 21 12 
4 12 21 22 13 
4 13 22 23 14 
4 14 23 24 15 
4 15 24 25 16 
4 16 25 26 17 
4 18 27 28 19 
4 19 28 29 20 
4 20 29 30 21 
4 21 30 31 22 
4 22 31 32 23 
4 23 32 33 24 
4 24 33 34 25 
4 25 34 35 26 
4 27 36 37 28 
4 28 37 38 29 
4 29 38 39 30 
4 30 39 40 31 
4 31 40 41 32 
4 32 41 42 33 
4 33 42 43 34 
4 34 43 44 35 
