ply
format ascii 1.0
comment VTK generated PLY File
obj_info vtkPolyData points and polygons: vtk4.0
element vertex 36
property float x
property float y
property float z
property float nx
property float ny
property float nz
element face 24
property list uchar int vertex_indices
end_header
15.240699768066406 -2.0044000148773193 2.1652998924255371 0 -0.026159986853599548 0.99965786933898926 
15.645512580871582 -2.0044000148773193 2.1652998924255371 0 -0.026159986853599548 0.99965786933898926 
16.050325393676758 -2.0044000148773193 2.1652998924255371 0 -0.026159986853599548 0.99965786933898926 
16.455137252807617 -2.0044000148773193 2.1652998924255371 0 -0.026159986853599548 0.99965786933898926 
16.859949111938477 -2.0044000148773193 2.1652998924255371 -6.5824952787729372e-18 -0.026159986853599548 0.99965786933898926 
17.264762878417969 -2.0044000148773193 2.1652998924255371 -6.5824952787729372e-18 -0.026159986853599548 0.99965786933898926 
17.669574737548828 -2.0044000148773193 2.1652998924255371 0 -0.026159986853599548 0.99965786933898926 
18.074386596679688 -2.0044000148773193 2.1652998924255371 0 -0.026159986853599548 0.99965786933898926 
18.47920036315918 -2.0044000148773193 2.1652998924255371 0 -0.026159986853599548 0.99965786933898926 
15.515832901000977 -3.3125667572021484 2.1310665607452393 0 -0.026159986853599548 0.99965786933898926 
15.916562080383301 -3.3125667572021484 2.1310665607452393 0 -0.026159986853599548 0.99965786933898926 
16.317291259765625 -3.3125667572021484 2.1310665607452393 0 -0.026159986853599548 0.99965786933898926 
16.718021392822266 -3.3125667572021484 2.1310665607452393 -6.6499129802378466e-18 -0.026159986853599548 0.99965786933898926 
17.118749618530273 -3.3125667572021484 2.1310665607452393 -1.3583539811594644e-17 -0.026159986853599548 0.99965786933898926 
17.519479751586914 -3.3125667572021484 2.1310665607452393 -6.9336264177664907e-18 -0.026159986853599548 0.99965786933898926 
17.920207977294922 -3.3125667572021484 2.1310665607452393 0 -0.026159986853599548 0.99965786933898926 
18.320938110351562 -3.3125667572021484 2.1310665607452393 0 -0.026159986853599548 0.99965786933898926 
18.72166633605957 -3.3125667572021484 2.1310665607452393 0 -0.026159986853599548 0.99965786933898926 
15.790966987609863 -4.6207332611083984 2.0968332290649414 0 -0.026159986853599548 0.99965786933898926 
16.187612533569336 -4.6207332611083984 2.0968332290649414 0 -0.026159986853599548 0.99965786933898926 
16.584259033203125 -4.6207332611083984 2.0968332290649414 0 -0.026159986853599548 0.99965786933898926 
16.980903625488281 -4.6207332611083984 2.0968332290649414 -1.4010052333400461e-17 -0.026159986853599548 0.99965786933898926 
17.37755012512207 -4.6207332611083984 2.0968332290649414 -1.7652431318575636e-17 -0.026159986853599548 0.99965786933898926 
17.774196624755859 -4.6207332611083984 2.0968332290649414 -3.6423789851751753e-18 -0.026159986853599548 0.99965786933898926 
18.170841217041016 -4.6207332611083984 2.0968332290649414 0 -0.026159986853599548 0.99965786933898926 
18.567487716674805 -4.6207332611083984 2.0968332290649414 0 -0.026159986853599548 0.99965786933898926 
18.964134216308594 -4.6207332611083984 2.0968332290649414 0 -0.026159986853599548 0.99965786933898926 
16.066099166870117 -5.9288997650146484 2.0625998973846436 0 -0.026159986853599548 0.99965786933898926 
16.458662033081055 -5.9288997650146484 2.0625998973846436 0 -0.026159986853599548 0.99965786933898926 
16.851224899291992 -5.9288997650146484 2.0625998973846436 0 -0.026159986853599548 0.99965786933898926 
17.24378776550293 -5.9288997650146484 2.0625998973846436 -1.4720279533505841e-17 -0.026159986853599548 0.99965786933898926 
17.636350631713867 -5.9288997650146484 2.0625998973846436 -1.4720279533505841e-17 -0.026159986853599548 0.99965786933898926 
18.028911590576172 -5.9288997650146484 2.0625998973846436 0 -0.026159986853599548 0.99965786933898926 
18.421474456787109 -5.9288997650146484 2.0625998973846436 0 -0.026159986853599548 0.99965786933898926 
18.814037322998047 -5.9288997650146484 2.0625998973846436 0 -0.026159986853599548 0.99965786933898926 
19.206600189208984 -5.9288997650146484 2.0625998973846436 0 -0.026159986853599548 0.99965786933898926 
4 0 9 10 1 
4 1 10 11 2 
4 2 11 12 3 
4 3 12 13 4 
4 4 13 14 5 
4 5 14 15 6 
4 6 15 16 7 
4 7 16 17 8 
4 9 18 19 10 
4 10 19 20 11 
4 11 20 21 12 
4 12 21 22 13 
4 13 22 23 14 
4 14 23 24 15 
4 15 24 25 16 
4 16 25 26 17 
4 18 27 28 19 
4 19 28 29 20 
4 20 29 30 21 
4 21 30 31 22 
4 22 31 32 23 
4 23 32 33 24 
4 24 33 34 25 
4 25 34 35 26 
