ply
format ascii 1.0
comment VTK generated PLY File
obj_info vtkPolyData points and polygons: vtk4.0
element vertex 27
property float x
property float y
property float z
property float nx
property float ny
property float nz
element face 16
property list uchar int vertex_indices
end_header
15.240699768066406 0 2.1652998924255371 0 0 -1 
15.645512580871582 0 2.1652998924255371 0 0 -1 
16.050325393676758 0 2.1652998924255371 0 0 -1 
16.455137252807617 0 2.1652998924255371 0 0 -1 
16.859949111938477 0 2.1652998924255371 0 0 -1 
17.264762878417969 0 2.1652998924255371 0 0 -1 
17.669574737548828 0 2.1652998924255371 0 0 -1 
18.074386596679688 0 2.1652998924255371 0 0 -1 
18.47920036315918 0 2.1652998924255371 0 0 -1 
15.240699768066406 1.0022000074386597 2.1652998924255371 0 0 -1 
15.645512580871582 1.0022000074386597 2.1652998924255371 0 0 -1 
16.050325393676758 1.0022000074386597 2.1652998924255371 0 0 -1 
16.455137252807617 1.0022000074386597 2.1652998924255371 0 0 -1 
16.859949111938477 1.0022000074386597 2.1652998924255371 0 0 -1 
17.264762878417969 1.0022000074386597 2.1652998924255371 0 0 -1 
17.669574737548828 1.0022000074386597 2.1652998924255371 0 0 -1 
18.074386596679688 1.0022000074386597 2.1652998924255371 0 0 -1 
18.47920036315918 1.0022000074386597 2.1652998924255371 0 0 -1 
15.240699768066406 2.0044000148773193 2.1652998924255371 0 0 -1 
15.645512580871582 2.0044000148773193 2.1652998924255371 0 0 -1 
16.050325393676758 2.0044000148773193 2.1652998924255371 0 0 -1 
16.455137252807617 2.0044000148773193 2.1652998924255371 0 0 -1 
16.859949111938477 2.0044000148773193 2.1652998924255371 0 0 -1 
17.264762878417969 2.0044000148773193 2.1652998924255371 0 0 -1 
17.669574737548828 2.0044000148773193 2.1652998924255371 0 0 -1 
18.074386596679688 2.0044000148773193 2.1652998924255371 0 0 -1 
18.47920036315918 2.0044000148773193 2.1652998924255371 0 0 -1 
4 0 9 10 1 
4 1 10 11 2 
4 2 11 12 3 
4 3 12 13 4 
4 4 13 14 5 
4 5 14 15 6 
4 6 15 16 7 
4 7 16 17 8 
4 9 18 19 10 
4 10 19 20 11 
4 11 20 21 12 
4 12 21 22 13 
4 13 22 23 14 
4 14 23 24 15 
4 15 24 25 16 
4 16 25 26 17 
